HIERARCHY
ROOT Hips
{
	OFFSET 0.00000 0.00000 0.00000
	CHANNELS 6 Xposition Yposition Zposition Zrotation Yrotation Xrotation 
	JOINT RightUpLegDummy
	{
		OFFSET 0 0 0
		CHANNELS 3 Zrotation Yrotation Xrotation
		JOINT RightUpLeg
		{
			OFFSET -3.52197 -3.41223 0.04002
			CHANNELS 3 Zrotation Yrotation Xrotation
			JOINT RightLeg
			{
				OFFSET 0.00006 -17.42390 1.60435
				CHANNELS 3 Zrotation Yrotation Xrotation
				JOINT RightFoot
				{
					OFFSET 0.06153 -16.50078 -1.63901
					CHANNELS 3 Zrotation Yrotation Xrotation
					JOINT RightToes
					{
						OFFSET 0.00298 -1.73825 3.34613
						CHANNELS 3 Zrotation Yrotation Xrotation
						End Site
						{
							OFFSET 0.00480 -0.05416 3.85043
						}
					}
				}
			}
		}
	}
	JOINT SpineDummy
	{
		OFFSET 0 0 0
		CHANNELS 3 Zrotation Yrotation Xrotation
		JOINT Spine
		{
			OFFSET 0.00000 4.68130 0.00000
			CHANNELS 3 Zrotation Yrotation Xrotation
			JOINT Spine1
			{
				OFFSET -0.00000 10.10138 0.05002
				CHANNELS 3 Zrotation Yrotation Xrotation
				JOINT HEadDummy
				{
					OFFSET 0 0 0
					CHANNELS 3 Zrotation Yrotation Xrotation
					JOINT Head
					{
						OFFSET -0.00000 3.43865 0.00438
						CHANNELS 3 Zrotation Yrotation Xrotation
						End Site
						{
							OFFSET -0.11417 5.02924 0.98962
						}
					}
				}
				JOINT LeftShoulder1Dummy
				{
					OFFSET 0 0 0
					CHANNELS 3 Zrotation Yrotation Xrotation
					JOINT LeftShoulder1
					{
						OFFSET 3.53937 -0.14262 -0.08662
						CHANNELS 3 Zrotation Yrotation Xrotation
						JOINT LeftArm
						{
							OFFSET 4.04833 -0.00133 0.12681
							CHANNELS 3 Zrotation Yrotation Xrotation
							JOINT LeftForeArm
							{
								OFFSET 10.33880 -0.01036 -0.55515
								CHANNELS 3 Zrotation Yrotation Xrotation
								JOINT LeftHand
								{
									OFFSET 8.69677 0.07543 0.40060
									CHANNELS 3 Zrotation Yrotation Xrotation
									End Site
									{
										OFFSET 5.28377 -0.21905 0.59205
									}
								}
							}
						}
					}
				}
				JOINT RightShoulderDummy
				{
					OFFSET 0 0 0
					CHANNELS 3 Zrotation Yrotation Xrotation
					JOINT RightShoulder
					{
						OFFSET -3.53937 -0.14262 -0.08660
						CHANNELS 3 Zrotation Yrotation Xrotation
						JOINT RightArm
						{
							OFFSET -4.04833 -0.00133 0.12683
							CHANNELS 3 Zrotation Yrotation Xrotation
							JOINT RightForeArm
							{
								OFFSET -10.37987 -0.01039 -0.55511
								CHANNELS 3 Zrotation Yrotation Xrotation
								JOINT RightHand
								{
									OFFSET -8.67398 0.07538 0.40058
									CHANNELS 3 Zrotation Yrotation Xrotation
									End Site
									{
										OFFSET -5.24810 -0.21916 0.59204
									}
								}
							}
						}
					}
				}
			}
		}
	}
	JOINT LeftUpLegDummy
	{
		OFFSET 0 0 0
		CHANNELS 3 Zrotation Yrotation Xrotation
		JOINT LeftUpLeg
		{
			OFFSET 3.52197 -3.41223 0.04002
			CHANNELS 3 Zrotation Yrotation Xrotation
			JOINT LeftLeg
			{
				OFFSET -0.00012 -17.42399 1.60337
				CHANNELS 3 Zrotation Yrotation Xrotation
				JOINT LeftFoot
				{
					OFFSET -0.09972 -16.50070 -1.63802
					CHANNELS 3 Zrotation Yrotation Xrotation
					JOINT LeftToes
					{
						OFFSET -0.01575 -1.73823 3.34611
						CHANNELS 3 Zrotation Yrotation Xrotation
						End Site
						{
							OFFSET 0.03150 -0.01868 3.85031
						}
					}
				}
			}
		}
	}
}
MOTION
Frames: 19
Frame Time: 0.033333
15.1855 39.6820 -2.7691 -4.2953 -12.2131 -2.8560 0.0000 0.0000 0.0000 0.1163 -1.3666 -12.2522 0.8957 -12.3217 -3.0238 13.5803 -2.1503 6.7942 0.0000 -0.0000 -0.0000 0.0000 0.0000 0.0000 -2.9160 -0.7011 7.2154 4.7334 -1.9178 4.1608 -0.0000 0.0000 -0.0000 1.0884 -2.8392 21.4058 -0.0000 0.0000 -0.0000 -33.3328 -2.6861 2.4361 -40.5739 -18.3623 -19.2352 -9.3932 5.0065 52.5291 16.4379 -3.0513 -1.1738 -0.0000 0.0000 -0.0000 35.8407 5.3508 3.7083 40.0436 3.6297 -17.0031 10.6916 -1.2245 24.6727 -11.0332 1.8578 -0.6734 0.0000 0.0000 0.0000 0.3684 2.5051 3.8376 5.1556 19.0215 11.6764 -2.6294 0.0592 -11.8564 0.0000 0.0000 -0.0000
15.0163 39.6116 -2.2708 -4.0458 -11.9040 -3.0891 0.0000 0.0000 0.0000 0.2334 -1.4468 -12.2691 0.9086 -12.8341 -2.5733 12.8556 -2.0951 7.3336 0.0000 -0.0000 -0.0000 0.0000 0.0000 0.0000 -2.8608 -0.8899 7.1608 4.6951 -2.1231 4.4738 -0.0000 0.0000 -0.0000 1.1520 -2.8824 21.4271 -0.0000 0.0000 -0.0000 -33.2937 -2.6488 2.4190 -40.7646 -18.1263 -19.3173 -9.3281 4.9922 53.0004 16.5188 -3.1563 -1.1941 -0.0000 0.0000 -0.0000 35.7368 5.3383 3.6938 40.1986 3.1389 -17.4266 10.5411 -1.6988 25.1028 -11.1793 1.9469 -0.6904 0.0000 0.0000 0.0000 0.3140 2.5923 4.7802 5.0762 18.6469 11.8952 -2.8533 0.0428 -12.6685 0.0000 0.0000 -0.0000
14.8153 39.5323 -1.7194 -3.7759 -11.3826 -3.3803 0.0000 0.0000 0.0000 0.3931 -1.7128 -12.1145 0.7409 -12.6662 -1.2831 12.6141 -1.9555 6.4352 0.0000 -0.0000 -0.0000 0.0000 0.0000 0.0000 -2.7989 -1.0430 6.9019 4.7546 -2.3126 4.9006 -0.0000 0.0000 -0.0000 1.1769 -3.0519 21.6509 -0.0000 0.0000 -0.0000 -33.4088 -2.6517 2.4258 -40.8848 -18.1539 -19.5072 -9.1668 4.9712 53.7131 16.6228 -3.2295 -1.2119 -0.0000 0.0000 -0.0000 35.7489 5.3343 3.6922 40.1872 2.5334 -17.7696 10.4307 -1.8898 25.2845 -11.1656 2.0537 -0.6991 0.0000 0.0000 0.0000 0.3937 2.8027 5.7955 4.8346 17.9257 12.2438 -3.1364 0.0213 -13.5206 0.0000 0.0000 -0.0000
14.5760 39.4604 -1.1267 -3.4153 -10.6981 -3.6741 0.0000 0.0000 0.0000 0.5039 -2.0317 -11.4381 0.6407 -11.8957 -0.3850 12.4871 -1.8218 5.3671 0.0000 -0.0000 -0.0000 0.0000 0.0000 0.0000 -2.9258 -1.1428 6.5381 5.0369 -2.4932 5.2465 -0.0000 0.0000 -0.0000 1.1109 -3.2431 22.0605 -0.0000 0.0000 -0.0000 -33.6503 -2.6362 2.4361 -40.9848 -18.1823 -19.6135 -9.0549 4.9565 54.2051 16.5865 -3.2203 -1.2079 -0.0000 0.0000 -0.0000 35.7787 5.3288 3.6895 40.1386 1.8402 -17.9822 10.3808 -1.8897 25.2444 -11.1330 2.0690 -0.6983 0.0000 0.0000 0.0000 0.5774 3.1301 6.9546 4.2942 16.9194 12.3814 -3.3763 -0.0005 -14.2587 0.0000 0.0000 -0.0000
14.2942 39.4213 -0.5094 -2.9668 -9.8603 -3.9630 0.0000 0.0000 0.0000 0.5330 -2.0260 -10.5208 0.4881 -11.2732 0.1064 10.9794 -1.6383 5.8526 0.0000 -0.0000 -0.0000 0.0000 0.0000 0.0000 -3.2168 -1.2196 6.1145 5.4365 -2.6707 5.5669 -0.0000 0.0000 -0.0000 1.0928 -3.5407 22.3284 -0.0000 0.0000 -0.0000 -33.8546 -2.5964 2.4329 -41.1990 -18.0281 -19.3838 -9.1795 4.9601 54.0510 16.5194 -3.2149 -1.2021 -0.0000 0.0000 -0.0000 35.7634 5.3206 3.6890 40.2228 1.2186 -18.2305 10.3070 -1.8352 25.1577 -11.0829 2.0064 -0.6896 0.0000 0.0000 0.0000 0.8738 3.5433 8.4515 3.3802 15.6493 11.8047 -3.5616 -0.0180 -14.7661 0.0000 0.0000 -0.0000
13.9716 39.4168 0.1226 -2.6389 -8.9713 -4.2565 0.0000 0.0000 0.0000 0.7478 -1.6044 -9.5582 0.1013 -11.4185 0.3982 7.6928 -1.2724 7.8971 0.0000 -0.0000 -0.0000 0.0000 0.0000 0.0000 -3.3100 -1.2814 5.6710 5.7266 -2.8007 5.9633 -0.0000 0.0000 -0.0000 1.1809 -3.9421 22.2089 -0.0000 0.0000 -0.0000 -34.0286 -2.5828 2.4382 -41.4492 -17.7480 -18.9425 -9.4710 4.9756 53.4695 16.5245 -3.2908 -1.2128 -0.0000 0.0000 -0.0000 35.8324 5.3295 3.6987 40.3085 0.8558 -18.5075 10.2270 -1.8440 24.9878 -10.9651 1.9706 -0.6789 0.0000 0.0000 0.0000 1.4700 4.0733 10.1892 2.3259 14.1469 10.8202 -3.7526 -0.0309 -15.0293 0.0000 0.0000 -0.0000
13.6238 39.4315 0.7583 -2.6630 -8.2327 -4.5483 0.0000 0.0000 0.0000 1.3556 -1.0710 -8.6712 -0.4701 -12.0625 1.0277 4.3430 -0.7613 9.3061 0.0000 -0.0000 -0.0000 0.0000 0.0000 0.0000 -2.8757 -1.3162 5.3390 5.8013 -2.8491 6.3070 -0.0000 0.0000 -0.0000 1.2922 -4.2019 21.9369 -0.0000 0.0000 -0.0000 -34.2728 -2.6069 2.4630 -41.6226 -17.5277 -18.7052 -9.6378 4.9879 53.0271 16.6210 -3.3634 -1.2301 -0.0000 0.0000 -0.0000 36.0475 5.3606 3.7312 40.2148 0.8393 -18.4597 10.2864 -1.8513 24.7496 -10.9424 1.9662 -0.6771 0.0000 0.0000 0.0000 2.5799 4.8354 11.7501 1.4485 12.4971 10.3809 -4.0187 -0.0395 -15.0302 0.0000 0.0000 -0.0000
13.2685 39.4772 1.3846 -2.9398 -7.6822 -4.7972 0.0000 0.0000 0.0000 2.0593 -0.7727 -7.7860 -0.8598 -12.6663 2.0453 2.8782 -0.4737 8.6185 0.0000 -0.0000 -0.0000 0.0000 0.0000 0.0000 -2.1154 -1.3610 5.1790 5.7583 -2.8794 6.4192 -0.0000 0.0000 -0.0000 1.4521 -4.1892 21.9398 -0.0000 0.0000 -0.0000 -34.4335 -2.6392 2.4860 -41.9467 -17.4420 -18.8291 -9.5282 4.9948 52.8481 16.8510 -3.2918 -1.2377 -0.0000 0.0000 -0.0000 36.2038 5.3824 3.7546 40.1210 1.0876 -17.8848 10.5163 -1.5487 24.6487 -11.1144 1.9171 -0.6837 0.0000 0.0000 0.0000 4.1545 6.1430 12.9053 0.7269 10.4196 10.7284 -4.5061 -0.0403 -14.5883 0.0000 0.0000 -0.0000
12.9058 39.5636 1.9832 -3.0640 -7.1024 -4.9527 0.0000 0.0000 0.0000 2.4010 -0.9298 -6.8762 -0.8909 -12.9137 3.0278 3.3286 -0.5015 6.6881 0.0000 -0.0000 -0.0000 0.0000 0.0000 0.0000 -1.6923 -1.4810 5.0778 5.8238 -3.0061 6.3096 -0.0000 0.0000 -0.0000 1.7818 -4.1077 22.2780 -0.0000 0.0000 -0.0000 -34.2285 -2.6753 2.4877 -42.7338 -17.4035 -18.9731 -9.3387 5.0067 52.5402 17.0861 -3.1332 -1.2334 -0.0000 0.0000 -0.0000 36.0795 5.3641 3.7356 40.3670 1.4121 -17.0748 10.7541 -0.6334 24.6041 -11.2024 1.8978 -0.6876 0.0000 0.0000 0.0000 5.8766 8.4507 13.6297 0.0310 7.1797 11.5267 -5.3886 -0.0229 -13.5686 0.0000 0.0000 -0.0000
12.5240 39.6486 2.5560 -2.7891 -6.3764 -5.0324 0.0000 0.0000 0.0000 2.3280 -1.3612 -6.1751 -0.8693 -12.9940 4.0605 3.9729 -0.5480 4.8543 0.0000 -0.0000 -0.0000 0.0000 0.0000 0.0000 -1.9485 -1.6568 4.9552 6.0999 -3.2283 6.0726 -0.0000 0.0000 -0.0000 2.2099 -4.1803 22.6151 -0.0000 0.0000 -0.0000 -33.7264 -2.7259 2.4764 -43.8078 -17.3149 -18.6575 -9.4182 5.0255 51.9118 16.9144 -3.1196 -1.2186 -0.0000 0.0000 -0.0000 35.7460 5.3178 3.6860 40.9317 1.6623 -16.3319 10.9082 0.8979 24.1799 -10.9871 2.0847 -0.6901 0.0000 0.0000 0.0000 7.4922 12.0298 13.9057 -0.5861 2.3864 12.9054 -6.5553 0.0268 -12.1447 0.0000 0.0000 -0.0000
12.1275 39.6439 3.0991 -2.3049 -5.7610 -5.1444 0.0000 0.0000 0.0000 2.2432 -1.7088 -6.0872 -1.2283 -13.0834 6.0586 3.3988 -0.4217 3.1370 0.0000 -0.0000 -0.0000 0.0000 0.0000 0.0000 -2.4322 -1.7612 5.0402 6.3764 -3.3594 5.6485 -0.0000 0.0000 -0.0000 2.5043 -4.3522 22.6128 -0.0000 0.0000 -0.0000 -33.3380 -2.7726 2.4704 -44.6028 -17.1998 -17.7187 -9.9133 5.0391 51.2903 16.1585 -3.3659 -1.1948 -0.0000 0.0000 -0.0000 35.4729 5.2818 3.6464 41.4229 1.8905 -15.5148 11.0831 2.7301 23.3931 -10.8371 2.4285 -0.7101 0.0000 0.0000 0.0000 8.9673 15.9732 13.5797 -1.1617 -2.7189 15.6879 -7.7132 0.0948 -10.8970 0.0000 0.0000 -0.0000
11.7420 39.5436 3.6023 -1.9766 -5.5501 -5.3962 0.0000 0.0000 0.0000 2.4804 -1.8314 -6.2986 -1.7973 -13.0365 8.7403 1.7082 -0.1857 1.3281 0.0000 -0.0000 -0.0000 0.0000 0.0000 0.0000 -2.4124 -1.7088 5.4804 6.2901 -3.2449 5.1258 -0.0000 0.0000 -0.0000 2.6132 -4.4550 22.1737 -0.0000 0.0000 -0.0000 -33.3078 -2.7968 2.4780 -44.8390 -17.2034 -16.4214 -10.6384 5.0413 50.9361 15.3340 -3.7633 -1.1815 -0.0000 0.0000 -0.0000 35.4029 5.2731 3.6366 41.5455 2.4026 -14.3068 11.3149 4.4082 22.8477 -11.2531 2.7058 -0.7632 0.0000 0.0000 0.0000 10.2702 17.7791 12.8247 -2.0811 -5.2288 19.6463 -8.7992 0.1621 -10.0080 0.0000 0.0000 -0.0000
11.3946 39.3727 4.0451 -1.9664 -5.5834 -5.7744 0.0000 0.0000 0.0000 3.0000 -1.8521 -6.6152 -2.3386 -12.8532 11.7775 -0.0025 -0.0018 -0.6413 0.0000 -0.0000 -0.0000 0.0000 0.0000 0.0000 -1.7026 -1.6068 6.1573 5.7985 -3.0053 4.7659 -0.0000 0.0000 -0.0000 2.6851 -4.4516 21.4481 -0.0000 0.0000 -0.0000 -33.5068 -2.8198 2.4997 -44.8039 -17.4716 -15.2609 -11.2515 5.0467 50.5093 15.1592 -4.1134 -1.2110 -0.0000 0.0000 -0.0000 35.4291 5.2757 3.6400 41.3330 3.4919 -12.7010 11.4462 5.6094 22.5976 -12.0199 2.8687 -0.8326 0.0000 0.0000 0.0000 11.6084 18.2625 11.5484 -3.1395 -5.9677 24.6426 -9.8109 0.2322 -9.2871 0.0000 0.0000 -0.0000
11.0912 39.1678 4.4451 -2.1873 -5.3955 -6.1941 0.0000 0.0000 0.0000 3.5993 -1.8754 -6.9393 -2.9067 -12.9131 14.8944 -0.9962 0.0665 -2.6679 0.0000 -0.0000 -0.0000 0.0000 0.0000 0.0000 -0.7953 -1.6342 6.8096 5.3614 -2.9307 4.7009 -0.0000 0.0000 -0.0000 2.7794 -4.4376 20.7996 -0.0000 0.0000 -0.0000 -33.7025 -2.8585 2.5275 -44.9856 -18.0189 -14.6298 -11.5212 5.0750 49.4480 15.7364 -4.2534 -1.2769 -0.0000 0.0000 -0.0000 35.3613 5.2660 3.6299 40.9121 5.0178 -11.5261 11.4510 6.3169 22.2449 -12.4031 3.0626 -0.8793 0.0000 0.0000 0.0000 12.7761 18.1000 9.5241 -3.8339 -5.7394 30.5690 -10.1458 0.3489 -7.9333 0.0000 0.0000 -0.0000
10.8189 38.9686 4.8318 -2.4542 -4.8407 -6.6321 0.0000 0.0000 0.0000 4.1555 -1.9045 -7.0852 -3.6143 -13.3570 17.7166 -1.3892 0.0649 -4.6192 0.0000 -0.0000 -0.0000 0.0000 0.0000 0.0000 -0.2515 -1.7761 7.4332 5.4254 -3.0884 4.6859 -0.0000 0.0000 -0.0000 2.8393 -4.5687 20.5918 -0.0000 0.0000 -0.0000 -33.7722 -2.8890 2.5441 -45.6324 -18.7345 -14.5068 -11.4783 5.1263 47.7110 16.5924 -4.1528 -1.3354 -0.0000 0.0000 -0.0000 35.1666 5.2407 3.6021 40.3604 6.4352 -10.6581 11.3773 7.0674 20.8145 -12.1850 3.2671 -0.8833 0.0000 0.0000 0.0000 13.4858 17.3184 6.9289 -3.6666 -4.4371 36.8007 -9.1878 0.4932 -5.5809 0.0000 0.0000 -0.0000
10.5606 38.8154 5.2228 -2.5680 -4.2788 -7.0805 0.0000 0.0000 0.0000 4.5799 -1.9392 -6.8859 -4.3007 -13.7900 19.8498 -1.6461 0.0490 -6.3062 0.0000 -0.0000 -0.0000 0.0000 0.0000 0.0000 -0.1784 -1.8276 8.0513 5.8404 -3.2241 4.5632 -0.0000 0.0000 -0.0000 2.9112 -4.9473 20.8420 -0.0000 0.0000 -0.0000 -33.6913 -2.8928 2.5404 -46.5979 -19.4838 -14.4346 -11.3825 5.1809 45.8085 17.2831 -3.9547 -1.3652 -0.0000 0.0000 -0.0000 35.0076 5.2176 3.5785 39.7277 7.3549 -9.3275 11.1778 8.3131 18.1439 -11.9353 3.2227 -0.8602 0.0000 0.0000 0.0000 13.6784 16.5825 4.3833 -2.3329 -2.4790 42.2217 -7.3748 0.5267 -3.5191 0.0000 0.0000 -0.0000
10.3076 38.7522 5.6331 -2.3765 -4.0867 -7.4480 0.0000 0.0000 0.0000 4.7569 -1.9957 -6.2883 -4.6899 -13.8428 20.9483 -2.0007 0.0395 -7.4944 0.0000 -0.0000 -0.0000 0.0000 0.0000 0.0000 -0.3599 -1.6739 8.4097 6.0928 -3.1191 4.5533 -0.0000 0.0000 -0.0000 3.0947 -5.4301 21.2377 -0.0000 0.0000 -0.0000 -33.5308 -2.8816 2.5256 -47.4635 -20.0896 -13.8971 -11.5361 5.2215 44.2210 17.6070 -3.9239 -1.3873 -0.0000 0.0000 -0.0000 35.0044 5.2103 3.5752 39.1224 7.9189 -7.8004 10.8384 9.6413 15.6674 -12.1547 2.9266 -0.8478 0.0000 0.0000 0.0000 13.3270 16.4311 2.3521 0.0665 -0.2816 45.7679 -5.6581 0.4145 -3.4234 0.0000 0.0000 -0.0000
10.0652 38.7803 6.0712 -1.8910 -4.2583 -7.6528 0.0000 0.0000 0.0000 4.6618 -2.0716 -5.4285 -4.7890 -13.5812 21.1321 -2.3331 0.0328 -8.2404 0.0000 -0.0000 -0.0000 0.0000 0.0000 0.0000 -0.6012 -1.4337 8.3661 5.9518 -2.8539 4.7561 -0.0000 0.0000 -0.0000 3.2930 -5.6746 21.5461 -0.0000 0.0000 -0.0000 -33.4374 -2.8557 2.5094 -47.8699 -20.2869 -12.7705 -12.0394 5.2452 43.0503 17.5555 -4.2104 -1.4245 -0.0000 0.0000 -0.0000 35.0383 5.2111 3.5785 38.7300 8.4688 -7.2925 10.5924 10.2098 14.9904 -12.6702 2.7006 -0.8623 0.0000 0.0000 0.0000 12.4311 16.8592 0.8206 3.0851 2.0341 47.0049 -4.3865 0.2696 -5.1156 0.0000 0.0000 -0.0000
9.8448 38.8493 6.5210 -1.3048 -4.5597 -7.7246 0.0000 0.0000 0.0000 4.4335 -2.1567 -4.5184 -4.7862 -13.2565 20.9132 -2.4757 0.0216 -8.8355 0.0000 -0.0000 -0.0000 0.0000 0.0000 0.0000 -0.7777 -1.2703 8.2079 5.5604 -2.6103 4.8770 -0.0000 0.0000 -0.0000 3.2916 -5.5412 21.7775 -0.0000 0.0000 -0.0000 -33.4528 -2.8026 2.4895 -47.8400 -19.9645 -11.4216 -12.6831 5.2661 42.1746 17.3571 -4.6624 -1.4725 -0.0000 0.0000 -0.0000 34.9313 5.2042 3.5662 38.6711 9.0466 -7.9421 10.6151 9.9013 15.8102 -13.0364 2.6954 -0.8874 0.0000 0.0000 0.0000 11.1446 17.5185 -0.4684 6.0664 4.4545 46.2214 -3.4517 0.1737 -6.9398 0.0000 0.0000 -0.0000
